<?xml version="1.0" standalone="no"?>
<!DOCTYPE svg PUBLIC "-//W3C//DTD SVG 20010904//EN"
 "http://www.w3.org/TR/2001/REC-SVG-20010904/DTD/svg10.dtd">
<svg version="1.0" xmlns="http://www.w3.org/2000/svg"
 width="1050.000000pt" height="1050.000000pt" viewBox="0 0 1050.000000 1050.000000"
 preserveAspectRatio="xMidYMid meet">
<metadata>
Created by potrace 1.11, written by Peter Selinger 2001-2013
</metadata>
<g transform="translate(0.000000,1050.000000) scale(0.100000,-0.100000)"
fill="#000000" stroke="none">
<path d="M5150 9834 c-52 -25 -135 -63 -185 -84 -49 -21 -137 -59 -195 -85
-58 -26 -163 -74 -235 -106 -71 -31 -191 -85 -265 -119 -74 -34 -153 -69 -175
-77 -22 -8 -86 -36 -142 -63 l-103 -49 0 175 0 174 -140 0 -140 0 0 -235 0
-235 -32 -14 c-46 -19 -277 -123 -438 -197 -74 -33 -166 -74 -205 -89 -38 -16
-90 -38 -115 -50 l-45 -21 875 5 c481 3 1307 8 1835 11 528 3 1259 8 1624 11
l664 6 -49 20 c-27 11 -89 38 -139 60 -49 23 -135 60 -190 83 -138 59 -436
192 -520 232 -27 14 -77 35 -110 47 -33 13 -108 46 -167 75 -60 28 -113 51
-118 51 -6 0 -54 21 -108 46 -53 25 -137 63 -187 84 -49 20 -137 59 -195 84
-58 26 -136 61 -175 78 -38 17 -97 44 -130 60 -33 17 -85 39 -115 50 -30 11
-101 43 -158 69 -57 27 -109 49 -115 49 -7 -1 -55 -21 -107 -46z"/>
<path d="M5240 8600 c0 -89 0 -90 25 -90 16 0 25 6 25 15 0 12 16 15 85 15
l85 0 0 -215 c0 -137 -4 -215 -10 -215 -5 0 -10 -11 -10 -25 l0 -25 100 0 c84
0 102 3 107 16 4 10 -1 22 -10 29 -15 11 -17 38 -17 224 l0 211 84 0 c65 0 85
-3 90 -15 3 -8 15 -15 26 -15 19 0 20 6 20 90 0 82 -2 90 -19 90 -11 0 -23 -4
-26 -10 -4 -6 -100 -10 -256 -10 -159 0 -249 4 -249 10 0 6 -11 10 -25 10 -25
0 -25 -1 -25 -90z"/>
<path d="M7275 8669 c-176 -21 -287 -139 -287 -305 1 -93 28 -158 91 -217 67
-63 140 -88 255 -88 103 1 164 15 265 61 70 33 91 60 56 74 -11 4 -15 22 -15
70 0 47 4 65 15 70 8 3 15 15 15 26 0 19 -6 20 -146 20 -125 0 -149 2 -159 17
-7 9 -19 14 -29 10 -13 -5 -16 -22 -16 -92 0 -79 1 -85 20 -85 11 0 23 7 26
15 9 22 132 21 141 -1 10 -26 -20 -45 -88 -56 -115 -20 -196 7 -246 81 -27 41
-32 135 -8 180 35 68 120 108 207 98 61 -8 138 -41 138 -61 0 -8 9 -20 20 -26
19 -10 24 -4 60 72 37 77 39 84 23 95 -10 8 -21 9 -26 4 -5 -5 -36 0 -76 14
-77 26 -152 33 -236 24z"/>
<path d="M2824 8655 c-5 -11 -1 -22 9 -30 15 -11 17 -41 17 -260 0 -219 -2
-249 -17 -260 -9 -7 -14 -19 -10 -29 5 -13 23 -16 107 -16 l100 0 0 25 c0 14
-4 25 -10 25 -6 0 -10 38 -10 95 l0 95 133 0 c156 0 201 10 244 57 83 88 60
223 -47 283 -44 24 -53 25 -277 28 -215 4 -233 3 -239 -13z m421 -121 c21 -8
35 -45 28 -73 -7 -29 -61 -41 -172 -40 l-91 1 0 59 0 59 109 0 c60 0 117 -3
126 -6z"/>
<path d="M3650 8646 c0 -13 6 -26 13 -29 14 -5 9 -18 -125 -302 -60 -127 -101
-201 -111 -203 -10 -2 -17 -13 -17 -28 0 -24 0 -24 105 -24 89 0 107 3 112 16
4 10 -1 22 -10 29 -16 11 -16 16 3 59 l21 46 120 0 119 0 22 -45 c21 -44 21
-45 3 -59 -11 -8 -16 -19 -12 -30 9 -24 234 -24 244 0 3 10 -5 25 -24 42 -20
18 -69 108 -142 259 -102 210 -111 234 -97 248 8 9 13 22 10 30 -5 12 -29 15
-120 15 -114 0 -114 0 -114 -24z m170 -313 c0 -9 -19 -13 -61 -13 -69 0 -69 0
-21 95 l25 50 28 -60 c15 -33 28 -66 29 -72z"/>
<path d="M4193 8655 c-3 -9 2 -24 11 -34 14 -15 16 -50 16 -256 0 -206 -2
-241 -16 -256 -9 -10 -14 -25 -11 -34 5 -12 26 -15 107 -15 99 0 100 0 100 24
0 13 -6 26 -12 28 -19 7 -19 498 -1 505 7 3 13 16 13 29 0 24 -1 24 -100 24
-81 0 -102 -3 -107 -15z"/>
<path d="M4510 8645 c0 -14 5 -25 10 -25 6 0 10 -92 10 -255 0 -163 -4 -255
-10 -255 -5 0 -10 -11 -10 -25 0 -25 0 -25 95 -25 80 0 97 3 102 16 4 10 -1
22 -10 29 -15 10 -17 34 -17 164 0 84 3 151 8 149 4 -1 71 -69 149 -151 132
-136 142 -149 136 -177 l-5 -30 106 0 106 0 0 25 c0 14 -4 25 -10 25 -6 0 -10
92 -10 255 0 163 4 255 10 255 6 0 10 11 10 25 0 25 0 25 -95 25 -80 0 -97 -3
-102 -16 -4 -10 1 -22 10 -29 15 -10 17 -34 17 -159 0 -83 -4 -146 -9 -146 -5
0 -19 11 -30 26 -11 14 -71 78 -134 144 -103 107 -113 121 -109 149 l4 31
-111 0 -111 0 0 -25z"/>
<path d="M5903 8654 c-4 -10 1 -22 10 -29 15 -11 17 -41 17 -260 0 -219 -2
-249 -17 -260 -9 -7 -14 -19 -10 -29 5 -13 23 -16 107 -16 l100 0 0 25 c0 14
-4 25 -10 25 -6 0 -10 92 -10 255 0 163 4 255 10 255 6 0 10 11 10 25 l0 25
-100 0 c-84 0 -102 -3 -107 -16z"/>
<path d="M6220 8646 c0 -13 5 -26 10 -28 15 -5 15 -501 1 -506 -6 -2 -11 -15
-11 -28 0 -24 1 -24 95 -24 80 0 97 3 102 16 4 10 -1 22 -10 29 -15 10 -17 34
-17 164 0 84 3 151 8 149 4 -1 70 -67 147 -146 120 -123 139 -147 140 -175 l0
-32 103 -3 102 -3 0 26 c0 14 -4 25 -10 25 -6 0 -10 92 -10 255 0 163 4 255
10 255 6 0 10 11 10 25 0 25 0 25 -95 25 -80 0 -97 -3 -102 -16 -4 -10 1 -22
10 -29 15 -10 17 -34 17 -159 0 -81 -4 -146 -8 -144 -4 2 -69 67 -143 146
-121 128 -135 146 -131 172 l4 30 -111 0 c-111 0 -111 0 -111 -24z"/>
<path d="M4170 7880 c0 -54 3 -70 14 -70 8 0 18 5 21 10 3 6 35 10 71 10 l64
0 0 -159 c0 -96 -4 -162 -10 -166 -5 -3 -10 -13 -10 -21 0 -11 17 -14 80 -14
63 0 80 3 80 14 0 8 -4 18 -10 21 -6 4 -10 70 -10 166 l0 159 64 0 c36 0 68
-4 71 -10 3 -5 13 -10 21 -10 11 0 14 16 14 70 0 63 -2 70 -20 70 -11 0 -20
-4 -20 -10 0 -6 -70 -10 -189 -10 -116 0 -192 4 -196 10 -3 6 -13 10 -21 10
-11 0 -14 -16 -14 -70z"/>
<path d="M5665 7940 c-4 -6 -83 -10 -206 -10 -167 0 -199 -2 -199 -14 0 -8 5
-18 10 -21 6 -4 10 -80 10 -195 0 -115 -4 -191 -10 -195 -5 -3 -10 -13 -10
-21 0 -12 33 -14 205 -14 130 0 205 -4 205 -10 0 -5 9 -10 20 -10 18 0 20 7
20 70 0 54 -3 70 -14 70 -8 0 -18 -4 -21 -10 -4 -6 -62 -10 -141 -10 l-135 0
3 43 3 42 78 1 c42 1 80 -3 83 -7 3 -5 14 -9 25 -9 17 0 19 7 19 63 l0 64
-105 -5 -105 -5 0 37 0 36 129 0 c76 0 132 -4 136 -10 3 -5 13 -10 21 -10 11
0 14 16 14 70 0 54 -3 70 -14 70 -8 0 -18 -4 -21 -10z"/>
<path d="M3005 7931 c-88 -22 -141 -69 -170 -150 -54 -154 47 -303 215 -318
117 -11 209 32 260 120 56 98 35 228 -48 297 -62 51 -169 72 -257 51z m142
-108 c46 -22 73 -67 73 -123 0 -56 -27 -101 -73 -123 -75 -36 -153 -12 -187
57 -25 52 -25 79 -1 132 31 68 113 93 188 57z"/>
<path d="M3410 7925 c0 -3 6 -16 14 -28 20 -31 20 -382 -1 -398 -26 -23 -11
-29 67 -29 63 0 80 3 80 14 0 8 -4 18 -10 21 -6 4 -10 55 -10 123 l1 117 109
-114 c77 -80 110 -120 110 -137 0 -23 2 -24 80 -24 63 0 80 3 80 14 0 8 -4 18
-10 21 -6 4 -10 82 -10 201 0 123 4 194 10 194 6 0 10 7 10 15 0 12 -15 15
-75 15 -59 0 -75 -3 -75 -14 0 -8 5 -18 10 -21 12 -7 14 -225 3 -225 -5 0 -54
49 -110 109 -81 86 -101 113 -96 130 5 20 2 21 -86 21 -50 0 -91 -2 -91 -5z"/>
<path d="M4670 7915 c0 -8 5 -15 10 -15 6 0 10 -71 10 -194 0 -119 -4 -197
-10 -201 -5 -3 -10 -13 -10 -21 0 -11 17 -14 80 -14 80 0 97 9 70 36 -6 6 -10
41 -8 80 l3 69 90 2 c138 3 135 4 135 -73 0 -43 -5 -73 -16 -89 l-16 -25 86 0
c68 0 86 3 86 14 0 8 -5 16 -11 18 -16 5 -17 390 0 396 6 2 11 10 11 18 0 11
-18 14 -79 14 -82 0 -102 -8 -76 -30 10 -9 15 -32 15 -76 l0 -64 -115 0 -115
0 0 64 c0 36 5 68 10 71 6 3 10 13 10 21 0 11 -17 14 -80 14 -64 0 -80 -3 -80
-15z"/>
<path d="M5970 7916 c0 -9 5 -16 10 -16 6 0 10 -73 10 -200 0 -127 -4 -200
-10 -200 -5 0 -10 -7 -10 -15 0 -12 16 -15 80 -15 80 0 97 9 69 37 -5 5 -9 38
-7 74 l3 64 46 3 45 3 47 -68 c34 -50 45 -74 41 -90 -6 -23 -5 -23 85 -23 73
0 91 3 91 15 0 7 -7 18 -17 23 -9 5 -38 38 -64 73 l-48 64 31 15 c50 24 72 63
72 124 0 59 -18 95 -61 123 -23 15 -56 18 -220 21 -170 3 -193 2 -193 -12z
m352 -111 c20 -45 -1 -55 -113 -55 l-99 0 0 40 0 40 100 0 c97 0 101 -1 112
-25z"/>
<path d="M6520 7915 c0 -8 4 -15 9 -15 5 0 11 -73 13 -162 4 -193 13 -217 86
-251 38 -18 66 -22 142 -22 76 0 104 4 142 22 73 34 82 58 86 251 2 89 8 162
13 162 5 0 9 7 9 15 0 12 -16 15 -80 15 -64 0 -80 -3 -80 -15 0 -8 5 -15 10
-15 6 0 10 -56 10 -149 l0 -150 -26 -20 c-52 -41 -174 -20 -188 31 -10 39 -7
276 4 283 6 3 10 13 10 21 0 11 -17 14 -80 14 -64 0 -80 -3 -80 -15z"/>
<path d="M7090 7916 c0 -8 5 -18 10 -21 6 -4 10 -80 10 -195 0 -115 -4 -191
-10 -195 -5 -3 -10 -13 -10 -21 0 -11 16 -14 75 -14 59 0 75 3 75 14 0 8 -4
18 -10 21 -9 6 -15 235 -6 235 1 0 52 -50 112 -111 86 -87 108 -116 106 -135
-3 -24 -1 -24 78 -24 63 0 80 3 80 14 0 8 -4 18 -10 21 -6 4 -10 80 -10 195 0
115 4 191 10 195 6 3 10 13 10 21 0 11 -16 14 -75 14 -60 0 -75 -3 -75 -15 0
-8 5 -15 10 -15 6 0 10 -45 10 -116 0 -64 -3 -114 -7 -112 -5 2 -54 50 -110
108 -83 86 -101 110 -96 128 5 21 3 22 -81 22 -68 0 -86 -3 -86 -14z"/>
<path d="M3142 7309 l-122 -60 -117 35 c-65 19 -119 34 -119 33 -5 -5 15 -556
21 -582 3 -17 14 -48 25 -70 14 -31 24 -110 45 -350 58 -684 146 -1376 209
-1638 l22 -92 2119 4 c1166 2 2122 5 2123 6 8 8 62 298 86 461 40 280 123
1135 152 1564 4 58 11 116 17 130 16 40 65 580 52 580 -6 0 -49 -15 -96 -34
l-86 -35 -135 51 -136 51 -119 -47 -118 -47 -163 41 -163 41 -123 -46 c-67
-25 -129 -45 -137 -45 -8 0 -75 20 -149 45 -82 28 -147 44 -165 42 -16 -2 -80
-26 -140 -54 l-111 -50 -139 54 -140 54 -142 -48 -142 -48 -153 51 -153 50
-123 -47 -123 -47 -145 50 -144 51 -133 -57 -132 -57 -90 37 c-49 20 -117 47
-151 60 l-61 23 -128 -60 c-70 -32 -135 -59 -143 -59 -9 0 -74 27 -144 60 -71
33 -137 60 -146 59 -9 0 -72 -28 -140 -60z m2674 -916 c-4 -214 -11 -491 -16
-618 -5 -126 -13 -302 -16 -390 -4 -88 -8 -167 -10 -175 -1 -8 -3 -53 -3 -99
-1 -46 -4 -81 -8 -77 -9 8 -7 970 2 1131 31 583 34 615 48 615 7 0 8 -120 3
-387z m-1101 207 c3 -74 13 -250 21 -390 12 -222 20 -1290 8 -1240 -3 13 -20
336 -39 705 -11 236 -17 1080 -7 1070 5 -5 13 -71 17 -145z m2201 -199 c-11
-536 -48 -1376 -62 -1390 -2 -2 -4 209 -4 470 0 357 5 562 20 829 24 406 27
443 42 434 7 -5 8 -112 4 -343z m-3332 317 c3 -13 14 -194 25 -403 16 -290 21
-499 21 -879 0 -275 -2 -497 -4 -495 -6 5 -34 475 -46 769 -17 421 -25 1030
-12 1030 6 0 14 -10 16 -22z m3867 -305 c-25 -535 -95 -1170 -160 -1473 -24
-106 -25 -75 -6 116 13 132 57 638 69 799 3 33 19 222 37 420 25 286 35 363
47 372 9 7 17 11 20 8 2 -2 -1 -111 -7 -242z m-3266 171 c24 -301 36 -728 33
-1154 l-3 -475 -13 215 c-24 415 -31 599 -38 1021 -6 385 -4 472 11 457 3 -3
8 -32 10 -64z m-1115 -6 c0 -7 5 -53 10 -103 8 -82 32 -367 46 -540 3 -38 27
-317 55 -619 27 -301 48 -553 46 -559 -5 -16 -62 278 -86 448 -48 331 -95 866
-108 1203 -6 182 -6 182 15 182 12 0 22 -6 22 -12z m2220 10 c0 -2 9 -145 20
-318 16 -248 20 -420 19 -810 -1 -272 -3 -488 -5 -480 -14 59 -49 891 -58
1363 -4 210 -3 247 10 247 8 0 14 -1 14 -2z m1045 -1315 c-2 -16 -7 -77 -10
-138 -3 -60 -8 -111 -10 -114 -3 -2 -5 59 -5 137 0 119 2 142 15 142 10 0 13
-8 10 -27z"/>
<path d="M3100 3945 l0 -575 2135 0 2135 0 0 575 0 575 -2135 0 -2135 0 0
-575z m4238 -2 l-3 -538 -2100 0 -2100 0 -3 538 -2 537 2105 0 2105 0 -2 -537z"/>
<path d="M3250 3933 l0 -393 1988 0 1987 0 -2 363 c-1 199 -2 376 -2 392 l-1
30 -1985 0 -1985 0 0 -392z m3960 -3 l0 -380 -1972 2 -1973 3 -3 378 -2 377
1975 0 1975 0 0 -380z"/>
<path d="M3129 3247 c-2 -52 1 -300 3 -302 2 -2 55 2 118 7 146 12 470 4 625
-17 135 -18 320 -57 410 -87 190 -63 377 -186 460 -303 119 -167 144 -308 110
-622 -33 -299 -70 -492 -136 -724 -57 -197 -55 -230 22 -379 52 -100 124 -194
176 -229 38 -26 52 -29 168 -35 70 -4 199 -4 287 0 160 7 161 7 202 38 62 48
132 141 182 244 58 118 66 180 36 278 -105 344 -171 757 -168 1034 3 186 18
244 97 363 119 182 351 317 655 381 244 51 340 60 644 61 157 0 297 -3 313 -8
l27 -7 0 163 0 162 -2115 2 -2115 2 -1 -22z m2231 -1968 c128 -58 190 -201
148 -341 -16 -53 -87 -131 -146 -159 -97 -48 -227 -24 -307 56 -80 80 -104
210 -56 307 26 56 105 130 153 145 57 19 158 15 208 -8z"/>
</g>
</svg>
